<?xml version="1.0" encoding="UTF-8" standalone="no"?>
<svg width="100%" height="100%" viewBox="0 0 337 337" version="1.1" xmlns="http://www.w3.org/2000/svg" style="fill-rule:evenodd;clip-rule:evenodd;stroke-linejoin:round;stroke-miterlimit:2;">
    <g transform="matrix(1,0,0,1,-8236.24075,-3104.714895)">
        <g transform="matrix(1,0,0,1,-0.850394,0)">
            <g transform="matrix(0,1.424261,-1.424261,0,11769.728309,-7660.084722)">
                <path d="M7676.315,2440.926L7676.315,2421.246C7691.453,2421.246 7699.954,2414.282 7707.717,2406.891C7713.267,2401.606 7718.518,2396.016 7724.159,2390.81C7741.307,2374.985 7761.307,2362.191 7794.425,2362.191L7794.425,2381.871C7761.384,2381.871 7744.671,2397.846 7728.245,2414.291C7715.184,2427.368 7702.412,2440.926 7676.315,2440.926ZM7794.425,2401.593L7794.425,2421.274C7779.129,2421.274 7770.521,2428.231 7762.713,2435.65C7757.167,2440.919 7751.935,2446.493 7746.324,2451.684C7729.189,2467.538 7709.273,2480.329 7676.315,2480.329L7676.315,2460.649C7709.149,2460.649 7725.767,2444.681 7742.199,2428.228C7755.266,2415.146 7768.14,2401.593 7794.425,2401.593Z" fill="currentColor"/>
            </g>
        </g>
        <g transform="matrix(1,0,0,1,-0.850394,0)">
            <g transform="matrix(1.424261,0,0,1.424261,-2527.748659,-91.422271)">
                <path d="M7676.315,2440.926L7676.315,2421.246C7691.453,2421.246 7699.954,2414.282 7707.717,2406.891C7713.267,2401.606 7718.518,2396.016 7724.159,2390.81C7741.307,2374.985 7761.307,2362.191 7794.425,2362.191L7794.425,2381.871C7761.384,2381.871 7744.671,2397.846 7728.245,2414.291C7715.184,2427.368 7702.412,2440.926 7676.315,2440.926ZM7794.425,2401.593L7794.425,2421.274C7779.129,2421.274 7770.521,2428.231 7762.713,2435.65C7757.167,2440.919 7751.935,2446.493 7746.324,2451.684C7729.189,2467.538 7709.273,2480.329 7676.315,2480.329L7676.315,2460.649C7709.149,2460.649 7725.767,2444.681 7742.199,2428.228C7755.266,2415.146 7768.14,2401.593 7794.425,2401.593Z" fill="currentColor"/>
            </g>
        </g>
        <g transform="matrix(1,0,0,1,-0.850394,0)">
            <g transform="matrix(0,-1.424261,1.424261,0,5040.933885,14206.094884)">
                <path d="M7676.315,2440.926L7676.315,2421.246C7691.453,2421.246 7699.954,2414.282 7707.717,2406.891C7713.267,2401.606 7718.518,2396.016 7724.159,2390.81C7741.307,2374.985 7761.307,2362.191 7794.425,2362.191L7794.425,2381.871C7761.384,2381.871 7744.671,2397.846 7728.245,2414.291C7715.184,2427.368 7702.412,2440.926 7676.315,2440.926ZM7794.425,2401.593L7794.425,2421.274C7779.129,2421.274 7770.521,2428.231 7762.713,2435.65C7757.167,2440.919 7751.935,2446.493 7746.324,2451.684C7729.189,2467.538 7709.273,2480.329 7676.315,2480.329L7676.315,2460.649C7709.149,2460.649 7725.767,2444.681 7742.199,2428.228C7755.266,2415.146 7768.14,2401.593 7794.425,2401.593Z" fill="currentColor"/>
            </g>
        </g>
        <g transform="matrix(1,0,0,1,-0.850394,0)">
            <g transform="matrix(1.424261,0,0,1.424261,-2695.948427,-259.662224)">
                <path d="M7676.315,2440.926L7676.315,2421.246C7691.453,2421.246 7699.954,2414.282 7707.717,2406.891C7713.267,2401.606 7718.518,2396.016 7724.159,2390.81C7741.307,2374.985 7761.307,2362.191 7794.425,2362.191L7794.425,2381.871C7761.384,2381.871 7744.671,2397.846 7728.245,2414.291C7715.184,2427.368 7702.412,2440.926 7676.315,2440.926ZM7794.425,2401.593L7794.425,2421.274C7779.129,2421.274 7770.521,2428.231 7762.713,2435.65C7757.167,2440.919 7751.935,2446.493 7746.324,2451.684C7729.189,2467.538 7709.273,2480.329 7676.315,2480.329L7676.315,2460.649C7709.149,2460.649 7725.767,2444.681 7742.199,2428.228C7755.266,2415.146 7768.14,2401.593 7794.425,2401.593Z" fill="currentColor"/>
            </g>
        </g>
    </g>
</svg>
