<?xml version="1.0" encoding="UTF-8" standalone="no"?><!DOCTYPE svg PUBLIC "-//W3C//DTD SVG 1.1//EN" "http://www.w3.org/Graphics/SVG/1.1/DTD/svg11.dtd"><svg width="100%" height="100%" viewBox="0 0 414 414" version="1.1" xmlns="http://www.w3.org/2000/svg" xmlns:xlink="http://www.w3.org/1999/xlink" xml:space="preserve" xmlns:serif="http://www.serif.com/" style="fill-rule:evenodd;clip-rule:evenodd;stroke-linejoin:round;stroke-miterlimit:2;"><g><path d="M261.998,0c40.145,-0 78.646,15.948 107.033,44.335c28.387,28.387 44.335,66.888 44.335,107.033c0,36.068 -0,74.562 -0,110.629c0,40.145 -15.948,78.646 -44.335,107.033c-28.387,28.387 -66.888,44.335 -107.033,44.335c-36.068,0 -74.562,0 -110.629,0c-40.145,0 -78.646,-15.948 -107.033,-44.335c-28.387,-28.387 -44.335,-66.888 -44.335,-107.033c0,-36.068 -0,-74.562 0,-110.629c-0,-40.145 15.948,-78.646 44.335,-107.033c28.387,-28.387 66.888,-44.335 107.033,-44.335l110.629,0Z" style="fill:#282828;"/><path d="M206.723,94.543l0,28.03c-21.561,0 -33.668,9.918 -44.724,20.445c-7.905,7.527 -15.383,15.488 -23.419,22.904c-24.423,22.538 -52.908,40.761 -100.077,40.761l0,-28.03c47.059,0 70.863,-22.752 94.258,-46.175c18.602,-18.624 36.793,-37.935 73.962,-37.935Zm-168.22,56.02l0,-28.03c21.786,0 34.046,-9.909 45.167,-20.475c7.898,-7.504 15.35,-15.443 23.341,-22.837c24.405,-22.58 52.771,-40.798 99.712,-40.798l0,28.03c-46.764,0 -70.432,22.742 -93.836,46.175c-18.611,18.633 -36.947,37.935 -74.384,37.935Z" style="fill:url(#_Linear1);"/><path d="M94.623,206.683l28.03,0c0,21.561 9.918,33.668 20.445,44.724c7.527,7.905 15.488,15.383 22.904,23.419c22.538,24.423 40.761,52.908 40.761,100.077l-28.03,0c0,-47.059 -22.752,-70.863 -46.175,-94.258c-18.624,-18.602 -37.935,-36.793 -37.935,-73.962Zm56.02,168.22l-28.03,0c0,-21.786 -9.909,-34.046 -20.475,-45.167c-7.504,-7.898 -15.443,-15.35 -22.837,-23.341c-22.58,-24.405 -40.798,-52.771 -40.798,-99.712l28.03,0c0,46.764 22.742,70.432 46.175,93.836c18.633,18.611 37.935,36.947 37.935,74.384Z" style="fill:url(#_Linear2);"/><path d="M206.763,318.783l0,-28.03c21.561,0 33.668,-9.918 44.724,-20.445c7.905,-7.527 15.383,-15.488 23.419,-22.904c24.423,-22.538 52.908,-40.761 100.077,-40.761l0,28.03c-47.059,0 -70.863,22.752 -94.258,46.175c-18.602,18.624 -36.793,37.935 -73.962,37.935Zm168.22,-56.02l0,28.03c-21.786,0 -34.046,9.909 -45.167,20.475c-7.898,7.504 -15.35,15.443 -23.341,22.837c-24.405,22.58 -52.771,40.798 -99.712,40.798l0,-28.03c46.764,0 70.432,-22.742 93.836,-46.175c18.611,-18.633 36.947,-37.935 74.384,-37.935Z" style="fill:url(#_Linear3);"/><path d="M318.823,206.683l-28.03,0c0,-21.561 -9.918,-33.668 -20.445,-44.724c-7.527,-7.905 -15.488,-15.383 -22.904,-23.419c-22.538,-24.423 -40.761,-52.908 -40.761,-100.077l28.03,0c0,47.059 22.752,70.863 46.175,94.258c18.624,18.602 37.935,36.793 37.935,73.962Zm-56.02,-168.22l28.03,0c0,21.786 9.909,34.046 20.475,45.167c7.504,7.898 15.443,15.35 22.837,23.341c22.58,24.405 40.798,52.771 40.798,99.712l-28.03,0c0,-46.764 -22.742,-70.432 -46.175,-93.836c-18.633,-18.611 -37.935,-36.947 -37.935,-74.384Z" style="fill:url(#_Linear4);"/></g><defs><linearGradient id="_Linear1" x1="0" y1="0" x2="1" y2="0" gradientUnits="userSpaceOnUse" gradientTransform="matrix(-168.219861,0,-0,-168.260046,206.723053,122.552844)"><stop offset="0" style="stop-color:#004dba;stop-opacity:1"/><stop offset="0.26" style="stop-color:#1ebac6;stop-opacity:1"/><stop offset="0.5" style="stop-color:#29e0ca;stop-opacity:1"/><stop offset="0.75" style="stop-color:#56e7a5;stop-opacity:1"/><stop offset="1" style="stop-color:#dafc38;stop-opacity:1"/></linearGradient><linearGradient id="_Linear2" x1="0" y1="0" x2="1" y2="0" gradientUnits="userSpaceOnUse" gradientTransform="matrix(0,168.219861,-168.260046,0,122.633215,206.682867)"><stop offset="0" style="stop-color:#004dba;stop-opacity:1"/><stop offset="0.26" style="stop-color:#1ebac6;stop-opacity:1"/><stop offset="0.5" style="stop-color:#29e0ca;stop-opacity:1"/><stop offset="0.75" style="stop-color:#56e7a5;stop-opacity:1"/><stop offset="1" style="stop-color:#dafc38;stop-opacity:1"/></linearGradient><linearGradient id="_Linear3" x1="0" y1="0" x2="1" y2="0" gradientUnits="userSpaceOnUse" gradientTransform="matrix(168.219861,0,-0,168.260046,206.763239,290.772704)"><stop offset="0" style="stop-color:#004dba;stop-opacity:1"/><stop offset="0.26" style="stop-color:#1ebac6;stop-opacity:1"/><stop offset="0.5" style="stop-color:#29e0ca;stop-opacity:1"/><stop offset="0.75" style="stop-color:#56e7a5;stop-opacity:1"/><stop offset="1" style="stop-color:#dafc38;stop-opacity:1"/></linearGradient><linearGradient id="_Linear4" x1="0" y1="0" x2="1" y2="0" gradientUnits="userSpaceOnUse" gradientTransform="matrix(0,-168.219861,168.260046,0,290.81289,206.682867)"><stop offset="0" style="stop-color:#004dba;stop-opacity:1"/><stop offset="0.26" style="stop-color:#1ebac6;stop-opacity:1"/><stop offset="0.5" style="stop-color:#29e0ca;stop-opacity:1"/><stop offset="0.75" style="stop-color:#56e7a5;stop-opacity:1"/><stop offset="1" style="stop-color:#dafc38;stop-opacity:1"/></linearGradient></defs></svg>